#!OML:ASF E:\motion texture\Top Level 1\Subject 1\Session 1\male.ASF
:FULLY-SPECIFIED
:DEGREES
767
root -49.3863 17.6872 2.12477 495.751 -86.029 -493.869
lowerback -5.21732 3.70676 1.84127
upperback -1.33563 4.76263 1.84542
thorax 1.53525 2.36352 1.17329
lowerneck -13.1913 -3.26631 -7.05155
upperneck 3.52694 -4.17006 11.833
head 3.61443 -1.64728 4.5017
rclavicle -3.06625e-014 -2.28602e-014
rhumerus 7.64204 50.3989 -83.6931
rradius 110.567
rwrist -15.9625
rhand -23.2506 -47.1759
rfingers 7.12502
rthumb 3.20106 -77.1317
lclavicle -3.06625e-014 -2.28602e-014
lhumerus -35.126 -27.4917 107.59
lradius 110.503
lwrist -7.33264
lhand -28.6859 38.6549
lfingers 7.12502
lthumb -2.04836 68.6248
rfemur -8.14414 -3.02809 22.2246
rtibia 56.2749
rfoot 13.9175 -5.74082
rtoes 3.90229
lfemur -30.019 -2.2963 -3.09386
ltibia 19.2114
lfoot -5.54957 7.23872
ltoes -15.6906
768
root -49.4972 17.6986 2.13761 499.038 -86.1649 -497.294
lowerback -5.07244 3.61593 1.55858
upperback -1.21447 4.66276 1.83245
thorax 1.5583 2.3151 1.30451
lowerneck -13.1655 -3.42727 -7.03114
upperneck 3.74513 -4.38792 11.6278
head 3.69017 -1.75862 4.41694
rclavicle -7.57867e-015 3.77691e-015
rhumerus 7.64204 50.3989 -83.6931
rradius 110.567
rwrist -15.9625
rhand -23.2506 -47.1759
rfingers 7.12502
rthumb 3.20106 -77.1317
lclavicle -7.57867e-015 3.77691e-015
lhumerus -35.126 -27.4917 107.59
lradius 110.503
lwrist -7.33264
lhand -28.6859 38.6549
lfingers 7.12502
lthumb -2.04836 68.6248
rfemur -9.24843 -3.25285 21.7347
rtibia 57.8764
rfoot 16.8232 -6.82227
rtoes 8.19491
lfemur -30.019 -2.2963 -3.09386
ltibia 19.2114
lfoot -5.54957 7.23872
ltoes -15.6906
769
root -49.6212 17.7175 2.14913 503.702 -86.4277 -501.976
lowerback -4.77908 3.54116 1.23214
upperback -1.32249 4.59561 1.67733
thorax 1.2717 2.28235 1.29698
lowerneck -13.279 -3.49439 -7.16043
upperneck 4.32627 -4.51026 11.7762
head 3.90316 -1.79789 4.4754
rclavicle 2.92089e-014 -1.07344e-014
rhumerus 7.64204 50.3989 -83.6931
rradius 110.567
rwrist -15.9625
rhand -23.2506 -47.1759
rfingers 7.12502
rthumb 3.20106 -77.1317
lclavicle 2.92089e-014 -1.07344e-014
lhumerus -35.126 -27.4917 107.59
lradius 110.503
lwrist -7.33264
lhand -28.6859 38.6549
lfingers 7.12502
lthumb -2.04836 68.6248
rfemur -10.4322 -3.82729 21.1108
rtibia 59.6285
rfoot 19.4767 -7.54383
rtoes 10.1757
lfemur -30.019 -2.2963 -3.09386
ltibia 19.2114
lfoot -5.54957 7.23872
ltoes -15.6906
770
root -49.734 17.7324 2.1607 506.535 -86.5897 -505.01
lowerback -3.81906 3.39558 1.7414
upperback -1.71816 4.42346 1.07446
thorax 0.419027 2.19308 0.311532
lowerneck -13.239 -3.50182 -6.7154
upperneck 5.04623 -4.6874 11.986
head 4.12897 -1.854 4.4547
rclavicle 1.1455e-014 8.54774e-015
rhumerus 7.64204 50.3989 -83.6931
rradius 110.567
rwrist -15.9625
rhand -23.2506 -47.1759
rfingers 7.12502
rthumb 3.20106 -77.1317
lclavicle 1.1455e-014 8.54774e-015
lhumerus -35.126 -27.4917 107.59
lradius 110.503
lwrist -7.33264
lhand -28.6859 38.6549
lfingers 7.12502
lthumb -2.04836 68.6248
rfemur -11.3443 -4.29893 20.6644
rtibia 61.0806
rfoot 21.4262 -9.05913
rtoes 10.5973
lfemur -30.019 -2.2963 -3.09386
ltibia 19.2114
lfoot -5.54957 7.23872
ltoes -15.6906
771
root -49.8524 17.7586 2.16842 507.762 -86.6163 -506.173
lowerback -3.81916 3.30798 1.57253
upperback -1.67874 4.31165 1.15704
thorax 0.439944 2.13857 0.485644
lowerneck -13.4881 -3.61299 -6.73691
upperneck 5.53542 -4.84285 11.8013
head 4.32762 -1.92013 4.38612
rclavicle 5.21437e-014 1.03368e-014
rhumerus 7.64204 50.3989 -83.6931
rradius 110.567
rwrist -15.9625
rhand -23.2506 -47.1759
rfingers 7.12502
rthumb 3.20106 -77.1317
lclavicle 5.21437e-014 1.03368e-014
lhumerus -35.126 -27.4917 107.59
lradius 110.503
lwrist -7.33264
lhand -28.6859 38.6549
lfingers 7.12502
lthumb -2.04836 68.6248
rfemur -12.6068 -4.72892 20.4704
rtibia 62.5047
rfoot 22.1401 -10.5887
rtoes 9.26702
lfemur -30.019 -2.2963 -3.09386
ltibia 19.2114
lfoot -5.54957 7.23872
ltoes -15.6906
772
root -49.9611 17.7797 2.16848 503.867 -86.8566 -502.258
lowerback -3.72192 3.10095 1.4791
upperback -1.72406 4.04133 1.224
thorax 0.327065 2.00337 0.586555
lowerneck -13.4538 -3.68334 -6.76324
upperneck 5.9582 -4.96566 11.7602
head 4.46159 -1.9743 4.36827
rclavicle 1.12189e-014 7.15625e-015
rhumerus 7.64204 50.3989 -83.6931
rradius 110.567
rwrist -15.9625
rhand -23.2506 -47.1759
rfingers 7.12502
rthumb 3.20106 -77.1317
lclavicle 1.12189e-014 7.15625e-015
lhumerus -35.126 -27.4917 107.59
lradius 110.503
lwrist -7.33264
lhand -28.6859 38.6549
lfingers 7.12502
lthumb -2.04836 68.6248
rfemur -13.7031 -5.43433 20.4775
rtibia 63.74
rfoot 21.2498 -11.9752
rtoes 9.12276
lfemur -30.019 -2.2963 -3.09386
ltibia 19.2114
lfoot -5.54957 7.23872
ltoes -15.6906
773
root -50.0648 17.8005 2.19006 507.399 -86.7864 -505.817
lowerback -3.55452 3.04209 1.48334
upperback -1.70605 3.9671 1.25518
thorax 0.250219 1.9664 0.603805
lowerneck -13.5631 -3.76708 -6.77199
upperneck 6.43249 -5.08644 11.5479
head 4.62884 -2.03043 4.29227
rclavicle 2.29845e-015 -8.94531e-015
rhumerus 7.64204 50.3989 -83.6931
rradius 110.567
rwrist -15.9625
rhand -23.2506 -47.1759
rfingers 7.12502
rthumb 3.20106 -77.1317
lclavicle 2.29845e-015 -8.94531e-015
lhumerus -35.126 -27.4917 107.59
lradius 110.503
lwrist -7.33264
lhand -28.6859 38.6549
lfingers 7.12502
lthumb -2.04836 68.6248
rfemur -14.9115 -5.87628 20.1588
rtibia 65.0669
rfoot 19.7103 -13.1844
rtoes 10.7143
lfemur -30.019 -2.2963 -3.09386
ltibia 19.2114
lfoot -5.54957 7.23872
ltoes -15.6906
